<?xml version="1.0" standalone="no"?>
<!DOCTYPE svg PUBLIC "-//W3C//DTD SVG 20010904//EN"
 "http://www.w3.org/TR/2001/REC-SVG-20010904/DTD/svg10.dtd">
<svg version="1.0" xmlns="http://www.w3.org/2000/svg"
 width="512.000000pt" height="512.000000pt" viewBox="0 0 512.000000 512.000000"
 preserveAspectRatio="xMidYMid meet">
<metadata>
Created by potrace 1.14, written by Peter Selinger 2001-2017
</metadata>
<g transform="translate(0.000000,512.000000) scale(0.100000,-0.100000)"
fill="#000000" stroke="none">
<path d="M0 2565 l0 -2555 2560 0 2560 0 0 2555 0 2555 -2560 0 -2560 0 0
-2555z m2668 1090 c90 -156 100 -169 132 -177 65 -17 165 -58 230 -96 l65 -38
197 47 c109 25 198 42 198 37 0 -5 -25 -90 -55 -188 -30 -98 -55 -185 -55
-193 0 -8 14 -43 30 -76 17 -34 41 -93 53 -132 l22 -70 140 -81 c77 -44 157
-91 178 -103 l38 -22 -179 -103 -180 -103 -16 -60 c-9 -33 -33 -95 -53 -139
l-36 -79 33 -112 c18 -62 42 -125 53 -141 11 -16 14 -25 7 -21 -10 6 -12 4 -7
-8 11 -30 28 -99 25 -102 -2 -2 -23 0 -46 6 -24 5 -47 7 -52 4 -4 -3 -10 -1
-12 3 -1 5 -67 23 -144 41 l-142 32 -50 -30 c-55 -35 -163 -81 -232 -100 -45
-12 -45 -12 -145 -186 -55 -96 -103 -175 -106 -175 -3 0 -43 66 -90 146 -70
121 -90 149 -121 165 -20 10 -43 27 -50 37 -7 9 -45 30 -84 45 -39 15 -98 44
-130 63 l-59 35 -199 -45 c-109 -26 -200 -45 -201 -44 -1 2 25 90 57 197 l59
193 -35 73 c-19 39 -43 100 -52 135 -20 71 -8 61 -233 190 l-143 83 26 16 c17
10 25 22 23 33 -6 21 22 33 29 13 9 -21 24 -8 24 20 0 15 7 26 20 30 11 3 26
13 34 21 12 11 20 12 40 2 30 -13 44 -5 27 16 -7 8 -8 17 -3 20 6 3 15 -1 22
-9 10 -12 19 -10 63 15 47 27 52 34 67 87 9 32 33 95 54 139 l37 80 -59 195
c-33 107 -59 195 -58 195 0 1 89 -19 197 -44 l195 -45 115 56 c63 31 139 62
169 70 52 13 55 15 52 42 -2 21 0 26 12 22 21 -8 31 10 16 28 -10 12 -9 15 4
15 9 0 16 7 16 15 0 8 7 15 16 15 12 0 15 6 10 26 -6 21 -4 25 8 21 16 -6 30
19 15 28 -13 9 0 27 16 22 7 -3 28 22 51 63 21 38 42 66 47 61 4 -4 52 -84
105 -176z"/>
<path d="M2527 3734 c-20 -34 -26 -54 -22 -74 3 -16 2 -31 -4 -35 -6 -3 -11 1
-11 10 0 9 -4 13 -10 10 -5 -3 -10 -23 -10 -44 0 -36 -31 -81 -56 -81 -5 0
-17 -13 -27 -29 -11 -19 -29 -32 -50 -36 -57 -12 -181 -64 -241 -100 -32 -19
-66 -35 -76 -35 -15 0 -295 62 -341 76 -13 4 -5 -32 39 -175 l55 -179 -35 -68
c-19 -38 -45 -104 -58 -147 -23 -76 -25 -79 -77 -108 -43 -25 -53 -36 -53 -57
-1 -25 -2 -25 -14 -9 -18 24 -26 21 -26 -8 0 -14 -4 -25 -10 -25 -5 0 -10 7
-10 15 0 23 -16 18 -35 -11 -9 -14 -22 -23 -30 -20 -7 2 -21 -2 -32 -9 -16
-13 -16 -14 -2 -15 9 0 20 -7 23 -16 5 -13 1 -15 -16 -11 -13 2 -32 8 -42 12
-12 6 -17 5 -13 -2 3 -5 76 -50 160 -98 l155 -89 17 -60 c9 -33 35 -100 57
-148 l40 -87 -31 -103 c-18 -57 -43 -136 -56 -175 -13 -40 -21 -73 -17 -73 4
0 87 18 184 41 l177 41 58 -36 c55 -34 182 -91 188 -84 1 2 5 12 9 23 5 17 -4
24 -63 48 -236 95 -429 315 -503 572 -19 68 -23 103 -23 230 0 178 13 233 85
380 88 179 218 309 395 395 135 66 195 81 355 87 145 6 218 -6 351 -56 230
-87 428 -301 508 -549 11 -35 32 -77 46 -93 29 -36 38 -119 14 -143 -5 -6 -6
11 -3 40 4 33 1 55 -8 67 -11 15 -13 -4 -14 -125 -1 -166 -20 -252 -83 -382
-140 -289 -409 -467 -745 -492 -69 -6 -86 -10 -87 -23 0 -11 -3 -8 -9 7 -12
27 -30 29 -30 2 0 -11 -4 -20 -10 -20 -5 0 -10 8 -10 19 0 18 -25 31 -62 31
-13 0 -18 -8 -18 -25 0 -16 6 -25 15 -25 8 0 15 7 15 15 0 8 5 15 10 15 18 0
10 -32 -9 -37 -12 -3 -17 -11 -14 -20 3 -8 14 -13 24 -10 24 6 34 -9 15 -20
-13 -7 -2 -32 58 -137 l74 -128 43 74 c23 40 66 114 95 164 l53 91 55 12 c31
7 109 39 174 72 l119 59 132 -30 c73 -17 136 -28 141 -25 4 3 10 1 12 -4 1 -5
18 -12 36 -16 26 -5 32 -4 32 10 0 13 -3 15 -13 7 -9 -8 -17 -8 -27 0 -13 8
-12 9 2 5 30 -10 27 19 -18 164 -24 79 -44 151 -44 160 0 10 14 44 30 78 17
33 42 96 57 141 l26 80 141 80 c78 44 149 85 159 92 16 12 1 23 -129 97 -80
47 -154 92 -164 100 -10 9 -23 39 -30 66 -6 28 -29 88 -51 134 -21 46 -39 90
-39 98 0 7 23 88 51 179 28 91 49 167 47 169 -2 1 -77 -15 -168 -36 -91 -21
-173 -39 -182 -39 -9 0 -43 15 -75 34 -58 35 -149 73 -233 98 -44 13 -46 15
-135 170 -49 86 -92 157 -95 158 -3 0 -18 -21 -33 -46z"/>
<path d="M2432 3570 c-18 -29 -15 -38 4 -12 9 13 14 25 12 27 -2 2 -9 -5 -16
-15z"/>
<path d="M2475 3399 c-306 -31 -570 -224 -691 -509 -91 -211 -84 -491 16 -691
94 -187 256 -340 440 -415 56 -22 62 -23 77 -9 8 9 22 14 30 11 8 -3 17 -6 21
-6 3 0 -3 -7 -14 -15 -21 -16 -15 -18 47 -15 21 1 40 -3 44 -9 10 -17 35 -13
29 4 -9 23 13 18 30 -7 14 -20 20 -21 101 -14 119 9 204 31 310 81 276 129
456 387 482 689 5 69 4 76 -11 70 -20 -8 -21 9 -1 26 16 13 20 57 7 76 -4 6
-15 13 -24 17 -25 9 -23 31 3 24 27 -7 20 15 -9 28 -27 12 -29 25 -3 25 18 0
18 4 9 38 -16 60 -72 174 -118 243 -166 246 -474 389 -775 358z m212 -184
c151 -29 306 -125 398 -246 93 -124 135 -249 135 -406 0 -120 -17 -191 -72
-303 -81 -165 -255 -302 -438 -345 -148 -34 -323 -11 -463 62 -92 47 -219 172
-269 263 -217 394 5 878 447 975 81 18 168 18 262 0z m577 -602 c1 -29 -1 -31
-11 -16 -7 9 -13 33 -13 52 1 32 2 34 12 17 6 -11 12 -35 12 -53z m108 5 c-9
-9 -12 -7 -12 12 0 19 3 21 12 12 9 -9 9 -15 0 -24z"/>
<path d="M2420 3185 c-219 -49 -411 -229 -474 -445 -99 -334 108 -698 449
-791 109 -30 267 -24 373 14 199 70 356 242 408 447 22 84 21 226 -1 310 -40
154 -156 311 -287 388 -136 80 -319 111 -468 77z m-136 -641 c3 -8 2 -12 -4
-9 -6 3 -10 10 -10 16 0 14 7 11 14 -7z"/>
<path d="M1410 2665 c-21 -25 -3 -29 32 -6 l33 21 -26 0 c-15 0 -32 -7 -39
-15z"/>
<path d="M2310 1700 c0 -11 2 -20 4 -20 2 0 10 -2 18 -5 9 -4 13 3 13 20 0 17
-5 25 -17 25 -11 0 -18 -8 -18 -20z"/>
</g>
</svg>
